<svg width="20" height="20" viewBox="0 0 20 20" fill="none" xmlns="http://www.w3.org/2000/svg">
<path fill-rule="evenodd" clip-rule="evenodd" d="M2.52568 7.82424C2.5 8.43195 2.5 9.14764 2.5 9.99935C2.5 12.666 2.5 13.9993 3.28817 14.8595C3.34713 14.9238 3.40888 14.9855 3.47323 15.0445C4.33336 15.8327 5.66669 15.8327 8.33333 15.8327H11.6667C14.3333 15.8327 15.6666 15.8327 16.5268 15.0445C16.5911 14.9855 16.6529 14.9238 16.7118 14.8595C17.5 13.9993 17.5 12.666 17.5 9.99935C17.5 9.14764 17.5 8.43195 17.4743 7.82424L10.9713 11.437C10.3672 11.7726 9.63276 11.7726 9.02871 11.437L2.52568 7.82424ZM2.89131 5.74567C2.92319 5.75927 2.95468 5.77466 2.98564 5.79186L10 9.68872L17.0144 5.79186C17.0453 5.77466 17.0768 5.75927 17.1087 5.74567C17.0058 5.51785 16.8759 5.3183 16.7118 5.13925C16.6529 5.0749 16.5911 5.01315 16.5268 4.95418C15.6666 4.16602 14.3333 4.16602 11.6667 4.16602H8.33333C5.66669 4.16602 4.33336 4.16602 3.47323 4.95418C3.40888 5.01315 3.34713 5.0749 3.28817 5.13925C3.1241 5.3183 2.99418 5.51785 2.89131 5.74567Z" fill="white"/>
</svg>
