<svg width="19" height="19" viewBox="0 0 19 19" fill="none" xmlns="http://www.w3.org/2000/svg">
<path d="M12.6668 6.33333V5.54167C12.6668 3.79276 11.2491 2.375 9.50016 2.375V2.375C7.75126 2.375 6.3335 3.79276 6.3335 5.54167V6.33333" stroke="white" stroke-width="2" stroke-linecap="round"/>
<path d="M2.375 10.6303C2.375 8.67641 2.375 7.69947 2.81269 6.9807C3.06189 6.57148 3.40547 6.2279 3.81469 5.97871C4.53345 5.54102 5.5104 5.54102 7.46429 5.54102H11.5357C13.4896 5.54102 14.4665 5.54102 15.1853 5.97871C15.5945 6.2279 15.9381 6.57148 16.1873 6.9807C16.625 7.69947 16.625 8.67641 16.625 10.6303V10.6303C16.625 13.2355 16.625 14.5381 16.0414 15.4964C15.7092 16.0421 15.251 16.5002 14.7054 16.8324C13.7471 17.416 12.4445 17.416 9.83929 17.416H9.16071C6.55553 17.416 5.25294 17.416 4.29458 16.8324C3.74896 16.5002 3.29085 16.0421 2.95859 15.4964C2.375 14.5381 2.375 13.2355 2.375 10.6303V10.6303Z" fill="white"/>
</svg>
