<svg width="30" height="30" viewBox="0 0 30 30" fill="none" xmlns="http://www.w3.org/2000/svg">
<path d="M11.33 10.62V19.38C11.33 19.6452 11.2246 19.8996 11.0371 20.0871C10.8496 20.2746 10.5952 20.38 10.33 20.38H10.08C9.81479 20.38 9.56043 20.2746 9.3729 20.0871C9.18536 19.8996 9.08 19.6452 9.08 19.38V10.61C9.08 10.3448 9.18536 10.0904 9.3729 9.90289C9.56043 9.71535 9.81479 9.61 10.08 9.61H10.33C10.5952 9.61 10.8496 9.71535 11.0371 9.90289C11.2246 10.0904 11.33 10.3448 11.33 10.61V10.62ZM22.42 14.13L14.83 9.75C14.678 9.66223 14.5055 9.61602 14.33 9.61602C14.1545 9.61602 13.982 9.66223 13.83 9.75C13.6774 9.8381 13.5508 9.96497 13.463 10.1177C13.3752 10.2705 13.3293 10.4438 13.33 10.62V19.38C13.3293 19.5562 13.3752 19.7295 13.463 19.8822C13.5508 20.035 13.6774 20.1619 13.83 20.25C13.982 20.3378 14.1545 20.384 14.33 20.384C14.5055 20.384 14.678 20.3378 14.83 20.25L22.42 15.87C22.5739 15.7828 22.7019 15.6563 22.791 15.5035C22.88 15.3506 22.927 15.1769 22.927 15C22.927 14.8231 22.88 14.6494 22.791 14.4965C22.7019 14.3437 22.5739 14.2172 22.42 14.13ZM30 15C30 17.9667 29.1203 20.8668 27.472 23.3335C25.8238 25.8003 23.4811 27.7229 20.7403 28.8582C17.9994 29.9935 14.9834 30.2906 12.0736 29.7118C9.16393 29.133 6.49119 27.7044 4.3934 25.6066C2.29562 23.5088 0.867006 20.8361 0.288227 17.9264C-0.290551 15.0166 0.00649941 12.0006 1.14181 9.25975C2.27713 6.51886 4.19972 4.17618 6.66645 2.52796C9.13319 0.879734 12.0333 0 15 0C18.9783 0 22.7936 1.58035 25.6066 4.3934C28.4196 7.20644 30 11.0218 30 15ZM24.92 15C24.9203 14.4731 24.7819 13.9553 24.5186 13.4989C24.2552 13.0425 23.8763 12.6635 23.42 12.4L15.83 8C15.3739 7.73669 14.8566 7.59807 14.33 7.59807C13.8034 7.59807 13.2861 7.73669 12.83 8C12.6511 8.10964 12.4836 8.23694 12.33 8.38C11.7839 7.87857 11.0714 7.59715 10.33 7.59H10.08C9.28436 7.59 8.52129 7.90607 7.95868 8.46868C7.39607 9.03129 7.08 9.79435 7.08 10.59V19.37C7.08 20.1656 7.39607 20.9287 7.95868 21.4913C8.52129 22.0539 9.28436 22.37 10.08 22.37H10.33C11.0714 22.3629 11.7839 22.0814 12.33 21.58C12.4836 21.7231 12.6511 21.8504 12.83 21.96C13.2844 22.2283 13.8024 22.3698 14.33 22.3698C14.8577 22.3698 15.3757 22.2283 15.83 21.96L23.42 17.58C23.8734 17.3182 24.2504 16.9424 24.5136 16.4897C24.7767 16.0371 24.9168 15.5235 24.92 15Z" fill="#4EB89E"/>
</svg>
