<svg width="314" height="296" viewBox="0 0 314 296" fill="none" xmlns="http://www.w3.org/2000/svg">
<g clip-path="url(#clip0_123_2124)">
<path d="M266.777 131.641C258.909 139.987 257.516 151.181 256.256 162.598C255.315 171.042 254.449 179.612 251.086 187.246C248.245 193.589 243.723 199.133 237.956 203.344C237.439 203.725 236.912 204.093 236.376 204.451H207.688C207.643 204.083 207.609 203.711 207.575 203.344C206.34 189.449 209.676 175.532 217.126 163.496C220.107 158.781 223.704 154.441 227.834 150.576C232.309 157.959 237.833 165.096 237.833 165.096L235.337 144.402C244.562 137.794 255.354 133.414 266.777 131.641Z" fill="#DDDBDB"/>
<path d="M314 156.023C294.898 163.248 289.271 186.45 273.713 199.179C271.793 200.745 269.723 202.139 267.53 203.343C266.821 203.734 266.102 204.106 265.368 204.45H224.072C224.171 204.083 224.264 203.71 224.368 203.343C228.769 187.204 239.684 172.66 254.527 163.611C255.099 163.262 255.675 162.923 256.256 162.597C260.656 160.104 265.336 158.079 270.208 156.558C270.73 165.049 272.305 173.767 272.305 173.767L279.838 154.195C291.213 152.168 302.94 152.796 314 156.023Z" fill="#DDDBDB"/>
<path d="M313.941 203.897C313.941 203.97 313.926 204.042 313.897 204.11C313.867 204.177 313.824 204.238 313.77 204.289C313.715 204.341 313.651 204.382 313.58 204.409C313.508 204.437 313.432 204.451 313.355 204.451H0.585868C0.430486 204.451 0.281467 204.393 0.171596 204.289C0.0617243 204.185 0 204.044 0 203.897C0 203.751 0.0617243 203.61 0.171596 203.506C0.281467 203.402 0.430486 203.344 0.585868 203.344H313.355C313.432 203.344 313.508 203.358 313.58 203.385C313.651 203.413 313.715 203.454 313.77 203.505C313.824 203.557 313.867 203.618 313.897 203.685C313.926 203.753 313.941 203.825 313.941 203.897Z" fill="#CCCCCC"/>
<path d="M196.64 208.026H141.984C139.459 208.027 136.958 207.558 134.625 206.646C132.291 205.733 130.171 204.395 128.385 202.708C126.599 201.021 125.182 199.018 124.215 196.814C123.249 194.609 122.751 192.246 122.751 189.86C122.751 187.473 123.249 185.11 124.215 182.906C125.182 180.701 126.599 178.698 128.385 177.011C130.171 175.324 132.291 173.986 134.625 173.074C136.958 172.161 139.459 171.692 141.984 171.693H196.64C199.166 171.692 201.666 172.161 204 173.074C206.333 173.986 208.454 175.324 210.24 177.011C212.026 178.698 213.443 180.701 214.409 182.906C215.376 185.11 215.874 187.473 215.874 189.86C215.874 192.246 215.376 194.609 214.409 196.814C213.443 199.018 212.026 201.021 210.24 202.708C208.454 204.395 206.333 205.733 204 206.646C201.666 207.558 199.166 208.027 196.64 208.026Z" fill="#2F2E41"/>
<path d="M146.199 274.262L153.643 279.287L177.695 254.547L166.708 247.131L146.199 274.262Z" fill="#FFB6B6"/>
<path d="M146.037 270.684L148.132 272.098L158.688 274.477L160.696 280.579L160.696 280.58C163.174 282.252 164.847 284.786 165.347 287.625C165.847 290.463 165.134 293.372 163.364 295.714L163.147 296.001L139.146 279.799L146.037 270.684Z" fill="#2F2E41"/>
<path d="M188.457 200.985L181.325 191.075C180.451 180.32 189.211 170.848 200.622 170.636C206.978 170.519 213.19 173.399 216.503 183.14C225.023 208.189 167.946 266.149 167.946 266.149L156.028 260.411L154.895 253.455L160.923 249.261L160.407 243.293L166.226 240.107L188.457 200.985Z" fill="#2F2E41"/>
<path d="M169.825 81.1738L178.64 87.5175L189.272 90.605C189.272 90.605 193.668 149.031 197.628 152.773C201.589 156.516 198.017 156.616 198.813 161.478C199.608 166.34 201.543 176.306 201.543 176.306C174.809 189.679 151.763 190.037 133.25 174.389C133.014 173.421 133.134 172.406 133.591 171.511C134.049 170.617 134.816 169.897 135.766 169.471C139.212 167.743 132.59 159.68 135.406 158.332C138.221 156.984 134.261 145.288 134.261 145.288L136.859 120.886L134.807 116.985L139.816 93.1177L148.507 90.1181L151.979 82.2131L169.825 81.1738Z" fill="#6C63FF"/>
<path d="M160.799 77.6431C170.43 77.6431 178.237 70.2653 178.237 61.1643C178.237 52.0634 170.43 44.6855 160.799 44.6855C151.169 44.6855 143.361 52.0634 143.361 61.1643C143.361 70.2653 151.169 77.6431 160.799 77.6431Z" fill="#FFB6B6"/>
<path d="M104.634 29.8245C105.368 30.6207 105.908 31.5592 106.217 32.5739C106.525 33.5887 106.594 34.655 106.42 35.6978C106.245 36.7406 105.83 37.7345 105.205 38.6094C104.58 39.4844 103.759 40.2192 102.801 40.762L108.356 65.8834L95.234 60.974L91.9705 37.8709C91.1122 36.2892 90.8978 34.4649 91.3677 32.7437C91.8377 31.0225 92.9595 29.5241 94.5205 28.5323C96.0815 27.5405 97.9732 27.1242 99.8373 27.3624C101.701 27.6005 103.408 28.4766 104.634 29.8245Z" fill="#FFB6B6"/>
<path d="M92.0996 46.6113L97.4059 92.7889L97.5939 92.8761C97.7488 92.9481 104.471 96.064 112.723 99.7749C114.116 100.401 113.916 103.113 115.371 103.761C116.373 104.207 119.02 102.587 120.032 103.035C129.052 107.021 138.173 110.897 141.808 111.947C146.715 113.416 152.006 113.255 156.803 111.491L156.919 111.441L156.979 111.335C158.205 109.165 158.612 106.665 158.132 104.248C157.653 101.831 156.316 99.6399 154.342 98.0368C144.769 90.3452 133.435 84.8615 121.235 82.0185L114.293 80.4089L105.402 47.514L92.0996 46.6113Z" fill="#6C63FF"/>
<path d="M146.597 47.007C148.031 43.0645 155.169 40.3299 166.743 39.9497C178.316 39.5694 181.251 52.4576 181.251 52.4576C188.977 58.3802 173.001 74.2364 172.228 73.6653L172.576 70.6863C173.151 65.7518 175.596 61.9016 172.487 56.7591L169.501 56.7915L163.837 57.8206C163.484 57.8848 163.119 57.8374 162.797 57.6859C162.475 57.5343 162.215 57.287 162.057 56.982C161.898 56.6769 161.851 56.3312 161.921 55.998C161.991 55.6648 162.175 55.3627 162.445 55.1382L162.497 55.095L162.368 54.9068C160.373 55.7718 158.317 56.5738 156.136 56.695C153.682 56.8313 150.999 55.9084 149.824 53.8682C149.51 53.3074 149.318 52.6929 149.26 52.0609C145.951 53.3103 144.438 57.1653 144.438 57.1653C144.438 57.1653 145.162 50.9495 146.597 47.007Z" fill="#2F2E41"/>
<path d="M137.399 13.5477C136.41 10.1304 134.377 7.06421 131.555 4.73199C128.733 2.39977 125.246 0.904862 121.53 0.433955C121.448 0.422407 121.37 0.437676 121.288 0.4324C121.182 0.400239 121.074 0.375477 120.965 0.358314C103.632 -1.86918 83.6245 6.3739 76.401 22.7135C72.8246 18.003 67.1224 14.9597 61.0237 15.2622C53.2434 15.6483 46.3771 21.28 44.2737 28.6873C44.1577 29.1326 44.1893 29.6008 44.3644 30.0285C44.5394 30.4562 44.8493 30.8227 45.2522 31.0783C46.6114 32.0463 47.5397 32.7247 49.212 33.077C52.3597 33.7401 55.5186 34.3475 58.6886 34.8993C64.8745 35.9758 71.0926 36.846 77.343 37.5102C90.0257 38.862 102.796 39.342 115.552 38.9463C119.8 38.8147 123.896 38.6745 127.788 36.8102C130.65 35.3931 133.07 33.2931 134.808 30.7189C138.206 25.8158 139.104 19.2263 137.399 13.5477Z" fill="#3F3D56"/>
<path d="M135.488 14.414C134.551 11.3829 132.679 8.68448 130.112 6.66306C127.443 4.60527 124.218 3.29355 120.802 2.87599H120.595L120.403 2.84342C120.342 2.82523 120.28 2.81124 120.216 2.80155C114.501 2.15973 108.708 2.55129 103.147 3.95535C92.459 6.61188 82.3368 12.9019 77.6105 23.0489L76.936 24.5051L75.9268 23.235C72.6036 19.0804 67.6212 16.6565 62.4764 16.6565C62.2204 16.6565 61.9644 16.6611 61.7035 16.6751C54.5549 17.01 48.1842 21.8672 46.2051 28.4876C46.1556 28.7219 46.1849 28.9651 46.2891 29.1829C46.3933 29.4007 46.5671 29.5821 46.786 29.7018L46.8648 29.7577C48.1301 30.6091 48.8932 31.1255 50.2963 31.4093C53.3536 32.0234 56.4651 32.591 59.5422 33.0981C65.5092 34.0844 71.6337 34.8986 77.7385 35.5174C88.5358 36.6127 99.3934 37.0897 110.252 36.9457C111.842 36.927 113.429 36.8945 115.012 36.8479C119.089 36.7316 122.944 36.6153 126.597 34.9544C129.214 33.7288 131.45 31.882 133.086 29.5948C134.634 27.3832 135.651 24.8783 136.066 22.2558C136.481 19.6333 136.284 16.9568 135.488 14.414Z" fill="white"/>
<path d="M110.252 36.9454C99.3934 37.0894 88.5358 36.6125 77.7385 35.5171C71.6337 34.8983 65.5092 34.0841 59.5422 33.0978C56.4652 32.5907 53.3537 32.0231 50.2963 31.409C48.8932 31.1252 48.1301 30.6088 46.8648 29.7574L46.786 29.7016C46.5671 29.5819 46.3933 29.4004 46.2891 29.1826C46.185 28.9648 46.1555 28.7217 46.2051 28.4873C48.1842 21.8669 54.5549 17.0098 61.7035 16.6748C61.9644 16.6608 62.2204 16.6562 62.4764 16.6562C67.6212 16.6562 72.6036 19.0801 75.9268 23.2347L76.936 24.5048L77.6105 23.0486C82.3368 12.9017 92.459 6.61161 103.147 3.95508C105.304 5.79744 106.692 8.62146 105.904 11.2408C104.954 14.4184 101.193 16.4003 100.563 19.6477C99.9867 22.6113 102.232 25.3655 104.541 27.4405C106.85 29.5108 109.523 31.5904 110.193 34.5308C110.372 35.3251 110.392 36.1441 110.252 36.9454Z" fill="#6C63FF"/>
<path d="M119.532 27.9147C124.426 27.9147 128.394 24.1654 128.394 19.5404C128.394 14.9153 124.426 11.166 119.532 11.166C114.638 11.166 110.67 14.9153 110.67 19.5404C110.67 24.1654 114.638 27.9147 119.532 27.9147Z" fill="#6C63FF"/>
<path d="M123.247 18.6472L119.924 15.5069C119.872 15.4582 119.811 15.4197 119.744 15.3934C119.677 15.3671 119.605 15.3535 119.532 15.3535C119.459 15.3535 119.387 15.3671 119.32 15.3934C119.253 15.4197 119.192 15.4582 119.14 15.5069L115.817 18.6472C115.713 18.7454 115.655 18.8785 115.655 19.0172C115.655 19.1559 115.714 19.289 115.817 19.387C115.921 19.4851 116.062 19.5403 116.209 19.5403C116.356 19.5404 116.496 19.4854 116.6 19.3874L118.978 17.1404V23.2045C118.978 23.3433 119.036 23.4764 119.14 23.5746C119.244 23.6727 119.385 23.7279 119.532 23.7279C119.679 23.7279 119.82 23.6727 119.924 23.5746C120.027 23.4764 120.086 23.3433 120.086 23.2045V17.1404L122.464 19.3874C122.515 19.436 122.576 19.4746 122.643 19.501C122.71 19.5273 122.782 19.5409 122.855 19.5409C122.928 19.541 123 19.5275 123.067 19.5012C123.135 19.4748 123.196 19.4363 123.247 19.3877C123.299 19.339 123.339 19.2813 123.367 19.2178C123.395 19.1542 123.409 19.0862 123.409 19.0174C123.409 18.9486 123.395 18.8805 123.367 18.817C123.339 18.7535 123.298 18.6958 123.247 18.6472Z" fill="white"/>
<path d="M193.693 267.251L186.712 272.837L160.589 250.049L170.892 241.805L193.693 267.251Z" fill="#FFB6B6"/>
<path d="M201.203 272.221L178.694 290.233L178.452 289.964C176.485 287.768 175.521 284.923 175.773 282.056C176.024 279.188 177.471 276.533 179.795 274.673L179.795 274.673L181.265 268.435L191.578 265.244L193.543 263.672L201.203 272.221Z" fill="#2F2E41"/>
<path d="M150.548 204.241L156.318 192.416C156.254 181.63 146.699 172.87 135.308 173.546C128.964 173.923 123.023 177.276 120.569 187.242C114.258 212.868 176.184 266.197 176.184 266.197L187.562 259.552L188.087 252.532L181.714 248.82L181.709 242.833L175.632 240.109L150.548 204.241Z" fill="#2F2E41"/>
<path d="M146.062 181.46V140.382C146.063 139.551 146.412 138.754 147.035 138.166C147.657 137.578 148.5 137.247 149.38 137.246H182.209C183.089 137.247 183.933 137.578 184.555 138.166C185.177 138.754 185.527 139.551 185.528 140.382V181.46C185.527 182.292 185.177 183.089 184.555 183.677C183.933 184.265 183.089 184.595 182.209 184.596H149.38C148.5 184.595 147.657 184.265 147.035 183.677C146.412 183.089 146.063 182.292 146.062 181.46Z" fill="#E6E6E6"/>
<path d="M148.58 169.053V142.644C148.581 141.865 148.909 141.119 149.491 140.568C150.074 140.018 150.864 139.708 151.688 139.707H179.902C180.726 139.708 181.516 140.018 182.099 140.568C182.681 141.119 183.009 141.865 183.01 142.644V179.198C183.009 179.977 182.681 180.723 182.099 181.274C181.516 181.824 180.726 182.134 179.902 182.135H162.424C158.754 182.131 155.235 180.751 152.639 178.299C150.044 175.846 148.584 172.521 148.58 169.053Z" fill="white"/>
<path d="M153.147 150.013C153.148 149.252 153.469 148.522 154.038 147.984C154.607 147.446 155.379 147.143 156.184 147.143H175.756C176.562 147.143 177.334 147.445 177.904 147.983C178.473 148.521 178.793 149.251 178.793 150.013C178.793 150.774 178.473 151.504 177.904 152.042C177.334 152.58 176.562 152.882 175.756 152.882H156.184C155.379 152.882 154.607 152.579 154.038 152.041C153.469 151.503 153.148 150.773 153.147 150.013Z" fill="#E6E6E6"/>
<path d="M153.147 158.942C153.148 158.181 153.469 157.452 154.038 156.914C154.607 156.376 155.379 156.073 156.184 156.072H175.756C176.562 156.072 177.334 156.375 177.904 156.913C178.473 157.451 178.793 158.181 178.793 158.942C178.793 159.703 178.473 160.433 177.904 160.972C177.334 161.51 176.562 161.812 175.756 161.812H156.184C155.379 161.811 154.607 161.509 154.038 160.971C153.469 160.433 153.148 159.703 153.147 158.942Z" fill="#E6E6E6"/>
<path d="M153.147 167.87C153.148 167.109 153.469 166.38 154.038 165.842C154.607 165.303 155.379 165.001 156.184 165H175.756C176.562 165 177.334 165.302 177.904 165.841C178.473 166.379 178.793 167.109 178.793 167.87C178.793 168.631 178.473 169.361 177.904 169.899C177.334 170.438 176.562 170.74 175.756 170.74H156.184C155.379 170.739 154.607 170.436 154.038 169.898C153.469 169.36 153.148 168.631 153.147 167.87Z" fill="#E6E6E6"/>
<path d="M175.348 185.015C175.308 183.96 175.514 182.91 175.95 181.938C176.387 180.966 177.044 180.097 177.874 179.391C178.705 178.685 179.69 178.159 180.758 177.852C181.827 177.544 182.954 177.461 184.06 177.61L196.485 154.789L203.407 166.411L190.547 186.301C190.16 188.04 189.111 189.585 187.599 190.642C186.087 191.7 184.217 192.196 182.343 192.038C180.47 191.879 178.723 191.077 177.434 189.783C176.144 188.488 175.402 186.792 175.348 185.015Z" fill="#FFB6B6"/>
<path d="M196.271 179.433L222.92 140.403L222.832 140.223C222.731 140.018 216.696 127.702 210.849 116.421C209.949 114.684 209.053 112.971 208.184 111.331C207.808 110.623 207.439 109.93 207.075 109.252C204.619 104.677 202.473 100.895 201.193 99.0987C198.36 95.0373 194.142 92.0137 189.24 90.53L189.116 90.5L188.999 90.5464C186.601 91.5025 184.619 93.2023 183.381 95.3655C182.142 97.5287 181.721 100.026 182.186 102.446C184.498 114.118 189.648 125.122 197.232 134.591L201.552 139.972L186.539 170.816L196.271 179.433Z" fill="#6C63FF"/>
</g>
<defs>
<clipPath id="clip0_123_2124">
<rect width="314" height="296" fill="white"/>
</clipPath>
</defs>
</svg>
