<svg width="335" height="277" viewBox="0 0 335 277" fill="none" xmlns="http://www.w3.org/2000/svg">
<g clip-path="url(#clip0_99_6619)">
<path opacity="0.18" d="M121.426 20.2081C112.622 29.3344 106.097 41.0655 96.7422 49.4594C80.9244 63.6795 59.4555 66.5069 40.8536 75.559C28.549 81.5473 16.8824 91.0351 11.4386 104.759C7.02632 115.851 7.59805 128.996 12.1677 139.985C14.3507 145.254 15.3207 151.05 14.9893 156.846C14.6579 162.641 13.0356 168.252 10.2703 173.167C3.49652 185.171 -0.588445 198.886 0.0702862 212.972C1.08946 234.636 15.7928 256.008 35.1032 258.001C41.7319 258.687 48.3938 257.18 54.9563 255.836C94.592 247.725 136.544 245.63 174.245 261.523C184.577 265.88 194.524 271.558 205.267 274.423C217.816 277.769 230.9 277.134 243.797 276.48C263.923 275.461 287.406 272.309 297.684 252.916C311.932 226.033 289.237 192.472 292.464 161.436C294.25 144.286 303.915 129.204 305.954 112.106C308.166 93.5195 300.29 73.8718 286.411 63.3597C267.138 48.7642 240.486 52.3053 220.588 38.7943C204.845 28.1015 194.023 7.20699 175.463 1.51988C157.258 -4.05136 134.675 6.4654 121.426 20.2081Z" fill="#68E1FD"/>
<path d="M37.6677 206.911C35.7205 191.954 31.0763 177.553 29.1954 162.582C27.3145 147.611 28.6236 131.147 37.1954 119.453C42.7884 111.838 50.8258 107.087 58.685 102.633C65.6742 98.6701 72.8705 94.7211 80.6427 93.6458C87.4952 92.7188 94.4098 94.0398 101.262 94.9575C114.155 96.6817 127.284 96.9088 140.082 94.4523C156.79 91.2402 172.587 83.8196 188.915 78.7721C204.911 73.8313 220.745 71.3145 238.63 80.6261C250.993 87.0688 260.116 100.519 263.074 115.388C267.855 139.412 257.058 166.035 266.136 188.45C268.696 194.762 272.673 200.204 275.921 206.109C279.914 213.389 282.796 221.362 284.447 229.701C285.015 232.57 285.434 235.597 284.708 238.419C282.844 245.65 274.857 248.055 268.137 248.649C245.794 250.623 223.471 245.96 201.186 243.249C165.01 238.855 128.506 239.629 92.2678 242.656C83.3964 243.397 74.5332 244.262 65.6783 245.251C58.5317 246.034 44.9635 250.813 38.227 248.537C30.7158 245.993 35.646 240.482 37.2369 232.57C38.9479 224.194 38.7698 215.365 37.6677 206.911Z" fill="url(#paint0_linear_99_6619)"/>
<path d="M159.086 63.582C159.086 63.582 155.659 79.1648 150.539 83.5124C145.252 87.9991 139.767 79.378 139.767 79.378L136.718 85.5518C136.718 85.5518 142.365 95.7488 148.057 95.9851C153.749 96.2215 158.746 90.5205 158.746 90.5205L159.086 63.582Z" fill="#68E1FD"/>
<path d="M129.828 52.8808L130.603 52.4961L146.396 56.9874L151.14 92.7694H150.547L129.828 52.8808Z" fill="#3F3D56"/>
<path opacity="0.05" d="M55.1223 245.954C55.1223 245.954 20.6736 248.536 15.7186 252.23C10.7636 255.924 49.5666 256.735 111.483 254.654C173.4 252.573 221.073 254.654 254.83 258.464C288.587 262.274 334.375 261.537 335.008 252.207C335.642 242.877 251.424 242.766 251.424 242.766L55.1223 245.954Z" fill="#000405"/>
<path d="M269.284 171.684C269.284 171.684 268.128 182.446 260.696 183.503H228.057L223.413 123.73H257.8C260.575 123.73 266.264 127.077 267.399 131.814C267.552 132.691 267.653 133.578 267.701 134.47C268.447 143.661 269.284 171.684 269.284 171.684Z" fill="#68E1FD"/>
<path d="M267.71 134.479H236.224L226.877 124.217L226.446 123.73H257.809C260.584 123.73 266.273 127.077 267.408 131.814C267.561 132.694 267.662 133.584 267.71 134.479Z" fill="url(#paint1_linear_99_6619)"/>
<path d="M59.3359 129.292L56.2618 127.795C55.8618 127.6 55.5339 127.257 55.3334 126.824C55.1329 126.39 55.072 125.893 55.161 125.415C55.25 124.937 55.4835 124.508 55.8221 124.201C56.1607 123.893 56.5837 123.725 57.02 123.725H223.414C225.469 123.704 227.503 124.201 229.362 125.18C231.222 126.159 232.861 127.595 234.157 129.38C235.236 130.846 235.951 132.605 236.228 134.478C236.978 140.073 236.518 164.439 236.311 173.588C236.199 178.557 232.926 182.835 228.518 183.452L228.046 183.503H66.8844L59.3359 129.292Z" fill="#68E1FD"/>
<path d="M59.3359 129.292L56.2618 127.795C55.8618 127.6 55.5339 127.257 55.3334 126.824C55.1329 126.39 55.072 125.893 55.161 125.415C55.25 124.937 55.4835 124.508 55.8221 124.201C56.1607 123.893 56.5837 123.725 57.02 123.725H223.414C225.469 123.704 227.503 124.201 229.362 125.18C231.222 126.159 232.861 127.595 234.157 129.38C235.236 130.846 235.951 132.605 236.228 134.478C236.978 140.073 236.518 164.439 236.311 173.588C236.199 178.557 232.926 182.835 228.518 183.452L228.046 183.503H66.8844L59.3359 129.292Z" fill="#68E1FD"/>
<path d="M236.323 173.588C236.211 178.557 232.939 182.835 228.53 183.452L228.058 183.503H66.8968L59.3359 129.292L56.2618 127.795C55.8618 127.6 55.5339 127.257 55.3334 126.824C55.1329 126.39 55.072 125.893 55.161 125.415C55.25 124.937 55.4835 124.508 55.8221 124.201C56.1607 123.893 56.5837 123.725 57.02 123.725H223.414C225.469 123.704 227.503 124.201 229.362 125.18C231.222 126.159 232.861 127.595 234.157 129.38C235.236 130.846 235.951 132.605 236.228 134.478C236.99 140.073 236.53 164.439 236.323 173.588Z" fill="url(#paint2_linear_99_6619)"/>
<path opacity="0.61" d="M50.9919 183.522H228.642C229.257 183.522 229.846 183.25 230.281 182.764C230.716 182.278 230.961 181.619 230.962 180.932C230.962 180.243 230.718 179.583 230.283 179.096C229.848 178.609 229.258 178.336 228.642 178.336H50.9919C50.3766 178.336 49.7865 178.609 49.3514 179.096C48.9163 179.583 48.6719 180.243 48.6719 180.932C48.673 181.619 48.9179 182.278 49.3529 182.764C49.7878 183.25 50.3773 183.522 50.9919 183.522Z" fill="url(#paint3_linear_99_6619)"/>
<path d="M50.9919 183.522H228.642C229.257 183.522 229.846 183.25 230.281 182.764C230.716 182.278 230.961 181.619 230.962 180.932C230.962 180.591 230.902 180.253 230.786 179.938C230.669 179.623 230.498 179.337 230.283 179.096C230.067 178.855 229.812 178.664 229.53 178.534C229.249 178.403 228.947 178.336 228.642 178.336H50.9919C50.3766 178.336 49.7865 178.609 49.3514 179.096C48.9163 179.583 48.6719 180.243 48.6719 180.932C48.673 181.619 48.9179 182.278 49.3529 182.764C49.7878 183.25 50.3773 183.522 50.9919 183.522ZM265.096 200.551V232.973C265.097 235.068 264.728 237.142 264.012 239.078C263.296 241.013 262.246 242.772 260.922 244.254C259.598 245.735 258.027 246.91 256.297 247.712C254.567 248.514 252.713 248.927 250.84 248.927H63.4125C61.5393 248.93 59.684 248.519 57.9528 247.718C56.2217 246.918 54.6489 245.743 53.3245 244.26C52.0001 242.778 50.9502 241.018 50.235 239.081C49.5198 237.145 49.1533 235.069 49.1566 232.973V200.551C49.1537 197.605 49.8854 194.715 51.2695 192.208C51.5718 191.653 51.9068 191.12 52.2721 190.614C53.6057 188.74 55.3001 187.227 57.229 186.188C59.1579 185.149 61.2716 184.61 63.4125 184.612H250.84C252.713 184.612 254.567 185.025 256.298 185.827C258.028 186.629 259.6 187.804 260.924 189.286C262.248 190.768 263.297 192.528 264.013 194.464C264.729 196.4 265.097 198.475 265.096 200.57V200.551Z" fill="#68E1FD"/>
<path opacity="0.61" d="M192.109 248.926H63.412C60.6787 248.927 58.0027 248.049 55.7029 246.397C53.403 244.744 51.5763 242.387 50.4404 239.605H183.923C183.923 239.605 185.845 247.485 192.109 248.926Z" fill="url(#paint4_linear_99_6619)"/>
<path d="M192.11 184.592C186.193 185.686 184.54 192.189 184.54 192.189H51.2695L52.2721 190.594C53.6057 188.72 55.3001 187.207 57.229 186.168C59.1579 185.129 61.2716 184.59 63.4126 184.592H192.11Z" fill="url(#paint5_linear_99_6619)"/>
<path opacity="0.61" d="M265.096 200.551V232.973C265.098 235.827 264.415 238.628 263.119 241.086C261.822 243.543 259.96 245.566 257.726 246.943H198.858C197.683 246.943 196.519 246.685 195.432 246.182C194.346 245.679 193.359 244.942 192.528 244.012C191.696 243.082 191.037 241.979 190.587 240.764C190.137 239.549 189.905 238.246 189.905 236.931V197.594C189.905 196.279 190.136 194.976 190.586 193.761C191.035 192.545 191.695 191.441 192.526 190.51C193.358 189.58 194.345 188.842 195.431 188.339C196.518 187.836 197.682 187.578 198.858 187.578H259.142C260.986 189.055 262.487 191.002 263.523 193.259C264.558 195.515 265.097 198.015 265.096 200.551Z" fill="url(#paint6_linear_99_6619)"/>
<path d="M265.096 200.552V232.973C265.096 233.571 265.067 234.168 265.009 234.762C264.984 235.022 264.951 235.277 264.913 235.532C264.758 236.642 264.494 237.73 264.126 238.776C264.039 239.041 263.944 239.295 263.836 239.55C263.374 240.706 262.79 241.795 262.096 242.795C261.914 243.054 261.723 243.314 261.52 243.564C260.44 244.935 259.156 246.088 257.725 246.971H207.318C206.045 246.973 204.786 246.671 203.626 246.083C202.466 245.495 201.432 244.637 200.594 243.564C200.4 243.318 200.218 243.061 200.047 242.795C199.415 241.817 198.95 240.717 198.676 239.55C198.614 239.3 198.564 239.041 198.522 238.776C198.419 238.173 198.367 237.56 198.369 236.945V197.595C198.368 196.893 198.434 196.194 198.568 195.509C198.61 195.249 198.667 194.992 198.738 194.739C199.044 193.564 199.544 192.464 200.213 191.495C200.394 191.226 200.589 190.969 200.797 190.726C201.632 189.726 202.641 188.929 203.763 188.386C204.885 187.842 206.095 187.562 207.318 187.564H259.142C260.252 188.454 261.242 189.519 262.08 190.726C262.254 190.976 262.424 191.231 262.585 191.495C263.209 192.505 263.724 193.594 264.118 194.739C264.209 194.994 264.296 195.254 264.367 195.509C264.686 196.561 264.9 197.649 265.005 198.753C265.034 199.008 265.054 199.268 265.067 199.527C265.087 199.852 265.096 200.209 265.096 200.552Z" fill="url(#paint7_linear_99_6619)"/>
<path d="M262.585 191.508H200.213C200.394 191.239 200.589 190.982 200.797 190.738H262.076C262.254 190.989 262.424 191.243 262.585 191.508ZM264.367 195.508H198.568C198.61 195.247 198.667 194.99 198.738 194.738H264.118C264.209 194.993 264.296 195.253 264.367 195.508ZM265.067 199.512H198.365V198.738H265.005C265.034 198.993 265.055 199.253 265.067 199.512ZM198.369 202.743H265.1V203.512H198.369V202.743ZM198.369 206.743H265.1V207.512H198.369V206.743ZM198.369 210.747H265.1V211.517H198.369V210.747ZM198.369 214.752H265.1V215.517H198.369V214.752ZM198.369 218.752H265.1V219.517H198.369V218.752ZM198.369 222.757H265.1V223.521H198.369V222.757ZM198.369 226.757H265.1V227.521H198.369V226.757ZM198.369 230.761H265.1V231.531H198.369V230.761ZM265.009 234.761C264.984 235.021 264.951 235.276 264.914 235.531H198.369V234.761H265.009ZM264.147 238.761C264.06 239.025 263.965 239.28 263.857 239.535H198.688C198.626 239.285 198.577 239.025 198.535 238.761H264.147ZM262.096 242.766C261.914 243.025 261.724 243.285 261.521 243.535H200.594C200.4 243.289 200.218 243.033 200.047 242.766H262.096Z" fill="white"/>
<path d="M182.398 177.117H224.863C223.063 178.124 221.076 178.644 219.063 178.637H61.1667C58.5531 178.657 55.9978 177.773 53.8502 176.107C53.2424 175.637 52.6775 175.102 52.164 174.508C51.9983 174.318 51.8367 174.118 51.6835 173.919C51.1054 173.163 50.6128 172.33 50.2168 171.439C50.1298 171.245 50.047 171.045 49.9724 170.851C49.6644 170.056 49.4419 169.224 49.3095 168.371C49.2805 168.176 49.2515 167.982 49.2308 167.778C49.1809 167.324 49.156 166.867 49.1563 166.41V141.539C49.1563 141.27 49.1563 141.006 49.1811 140.746C49.206 140.487 49.2101 140.352 49.2308 140.158C49.323 139.311 49.5023 138.479 49.7653 137.678C49.8316 137.479 49.902 137.284 49.9766 137.085C50.3146 136.203 50.7488 135.372 51.2692 134.61C51.4059 134.41 51.5467 134.211 51.6835 134.016C51.9894 133.617 52.3173 133.239 52.6653 132.886C55.0006 130.546 58.032 129.265 61.1667 129.293H219.063C221.545 129.29 223.973 130.096 226.053 131.611H182.398C181.733 131.61 181.071 131.7 180.426 131.88C179.102 132.233 177.886 132.976 176.905 134.03C176.728 134.216 176.564 134.414 176.412 134.624C175.857 135.35 175.435 136.191 175.169 137.099C175.11 137.293 175.062 137.491 175.024 137.692C174.911 138.216 174.856 138.753 174.858 139.291V169.451C174.86 169.918 174.903 170.384 174.986 170.841C175.02 171.04 175.064 171.237 175.119 171.43C175.355 172.332 175.747 173.175 176.271 173.91C176.414 174.116 176.567 174.312 176.731 174.498C177.442 175.322 178.298 175.973 179.245 176.408C180.243 176.879 181.315 177.12 182.398 177.117Z" fill="#68E1FD"/>
<path d="M231.069 141.72V166.883C231.069 167.022 231.069 167.171 231.044 167.31C231.019 167.449 231.024 167.592 231.011 167.731C230.999 167.87 230.978 167.991 230.966 168.116C230.953 168.241 230.937 168.315 230.92 168.413C230.915 168.463 230.907 168.512 230.895 168.561C230.874 168.695 230.85 168.835 230.821 168.969C230.792 169.103 230.783 169.145 230.758 169.233C230.734 169.321 230.721 169.405 230.696 169.493C230.671 169.581 230.651 169.678 230.626 169.771L230.539 170.054C230.539 170.132 230.497 170.206 230.473 170.281C230.448 170.355 230.406 170.48 230.369 170.577L230.257 170.879C230.239 170.935 230.217 170.989 230.191 171.041C230.165 171.119 230.134 171.194 230.1 171.268C230.075 171.333 230.042 171.398 230.013 171.463C229.984 171.527 229.926 171.662 229.876 171.755C229.826 171.847 229.735 172.056 229.656 172.218L229.528 172.45C229.412 172.663 229.292 172.867 229.163 173.066C229.097 173.173 229.031 173.27 228.965 173.368C228.832 173.567 228.691 173.757 228.55 173.947C228.409 174.137 228.235 174.345 228.066 174.536C227.726 174.924 227.365 175.288 226.984 175.625C226.977 175.636 226.967 175.646 226.955 175.653C226.831 175.764 226.707 175.866 226.578 175.972L226.164 176.292L225.75 176.589C225.617 176.682 225.484 176.765 225.335 176.853L224.859 177.136H182.398C181.316 177.14 180.244 176.902 179.245 176.436C178.299 176.002 177.443 175.355 176.73 174.536C176.567 174.349 176.413 174.153 176.27 173.947C175.746 173.217 175.354 172.38 175.118 171.481C175.064 171.29 175.019 171.095 174.986 170.897C174.902 170.439 174.859 169.974 174.857 169.507V139.463C174.856 138.927 174.911 138.393 175.023 137.873C175.061 137.674 175.11 137.477 175.168 137.284C175.435 136.381 175.857 135.545 176.411 134.823C176.563 134.613 176.728 134.415 176.904 134.23C177.889 133.181 179.104 132.442 180.426 132.088C181.071 131.912 181.733 131.824 182.398 131.824H226.052C226.243 131.963 226.433 132.107 226.615 132.26L226.827 132.436C227.115 132.676 227.392 132.933 227.655 133.205L227.883 133.446L228.049 133.632L228.273 133.891L228.496 134.17L228.542 134.23L228.575 134.276C228.708 134.452 228.84 134.638 228.965 134.823C229.031 134.916 229.093 135.013 229.155 135.106C229.161 135.12 229.17 135.132 229.18 135.143C229.29 135.322 229.398 135.503 229.503 135.685L229.681 136.01C229.789 136.214 229.893 136.427 229.988 136.635C230.033 136.747 230.083 136.849 230.129 136.955C230.174 137.062 230.22 137.178 230.257 137.284C230.294 137.391 230.336 137.479 230.369 137.581C230.402 137.683 230.439 137.776 230.468 137.873C230.497 137.97 230.531 138.068 230.56 138.165C230.685 138.566 230.787 138.976 230.862 139.393C230.875 139.446 230.885 139.501 230.891 139.555C230.891 139.653 230.924 139.75 230.941 139.847C230.957 139.945 230.986 140.176 231.007 140.339C231.028 140.501 231.048 140.728 231.057 140.927V141.242C231.057 141.349 231.069 141.558 231.069 141.72Z" fill="url(#paint8_linear_99_6619)"/>
<path d="M179.245 176.411C178.309 176.664 177.342 176.899 176.345 177.115H63.7685C60.441 177.137 57.1195 176.799 53.8502 176.105C53.2424 175.636 52.6775 175.1 52.164 174.506C51.9983 174.316 51.8367 174.117 51.6835 173.917C51.1054 173.161 50.6128 172.328 50.2168 171.438C50.1298 171.243 50.047 171.044 49.9724 170.849C49.6644 170.055 49.4419 169.222 49.3095 168.369C49.2805 168.175 49.2515 167.98 49.2308 167.776C49.1809 167.322 49.156 166.866 49.1563 166.409V141.537C49.1563 141.269 49.1563 141.004 49.1811 140.745C49.206 140.485 49.2101 140.351 49.2308 140.156C49.323 139.309 49.5023 138.477 49.7653 137.676C49.8316 137.477 49.902 137.282 49.9766 137.083C50.3146 136.202 50.7488 135.37 51.2692 134.608C51.4059 134.409 51.5467 134.209 51.6835 134.015C51.9894 133.615 52.3173 133.238 52.6653 132.884C56.3132 132.003 60.0368 131.576 63.7685 131.609H179.498L180.426 131.878C179.102 132.232 177.886 132.974 176.905 134.029C176.728 134.214 176.564 134.412 176.412 134.622C175.857 135.349 175.435 136.189 175.169 137.097C175.11 137.292 175.062 137.49 175.024 137.69C174.911 138.214 174.856 138.751 174.858 139.289V169.449C174.86 169.916 174.903 170.382 174.986 170.84C175.02 171.039 175.064 171.235 175.119 171.428C175.355 172.331 175.747 173.173 176.271 173.908C176.414 174.114 176.567 174.31 176.731 174.497C177.441 175.322 178.298 175.974 179.245 176.411Z" fill="#68E1FD"/>
<path d="M179.245 176.411C178.309 176.664 177.342 176.899 176.345 177.115H63.7685C60.441 177.137 57.1195 176.799 53.8502 176.105C53.2424 175.636 52.6775 175.1 52.164 174.506C51.9983 174.316 51.8367 174.117 51.6835 173.917C51.1054 173.161 50.6128 172.328 50.2168 171.438C50.1298 171.243 50.047 171.044 49.9724 170.849C49.6644 170.055 49.4419 169.222 49.3095 168.369C49.2805 168.175 49.2515 167.98 49.2308 167.776C49.1809 167.322 49.156 166.866 49.1563 166.409V141.537C49.1563 141.269 49.1563 141.004 49.1811 140.745C49.206 140.485 49.2101 140.351 49.2308 140.156C49.323 139.309 49.5023 138.477 49.7653 137.676C49.8316 137.477 49.902 137.282 49.9766 137.083C50.3146 136.202 50.7488 135.37 51.2692 134.608C51.4059 134.409 51.5467 134.209 51.6835 134.015C51.9894 133.615 52.3173 133.238 52.6653 132.884C56.3132 132.003 60.0368 131.576 63.7685 131.609H179.498L180.426 131.878C179.102 132.232 177.886 132.974 176.905 134.029C176.728 134.214 176.564 134.412 176.412 134.622C175.857 135.349 175.435 136.189 175.169 137.097C175.11 137.292 175.062 137.49 175.024 137.69C174.911 138.214 174.856 138.751 174.858 139.289V169.449C174.86 169.916 174.903 170.382 174.986 170.84C175.02 171.039 175.064 171.235 175.119 171.428C175.355 172.331 175.747 173.173 176.271 173.908C176.414 174.114 176.567 174.31 176.731 174.497C177.441 175.322 178.298 175.974 179.245 176.411Z" fill="url(#paint9_linear_99_6619)"/>
<path d="M228.058 178.961C227.725 179.392 227.363 179.795 226.977 180.166C227.36 179.791 227.722 179.389 228.058 178.961Z" fill="url(#paint10_linear_99_6619)"/>
<path d="M229.144 135.447C229.081 135.34 229.019 135.234 228.953 135.132C228.829 134.928 228.696 134.724 228.563 134.529C228.771 134.826 228.965 135.132 229.144 135.447Z" fill="url(#paint11_linear_99_6619)"/>
<path d="M230.457 138.502C230.49 138.609 230.519 138.715 230.548 138.822C230.494 138.604 230.428 138.391 230.357 138.178C230.395 138.284 230.428 138.391 230.457 138.502Z" fill="url(#paint12_linear_99_6619)"/>
<path d="M231.07 141.72V167.161C231.07 167.402 231.049 167.518 231.028 167.699C230.954 168.462 230.807 169.214 230.589 169.942C230.539 170.123 230.486 170.299 230.423 170.471C229.379 173.379 227.404 175.748 224.884 177.117H175.268C171.44 177.117 168.279 174.225 167.811 170.48C167.782 170.302 167.765 170.123 167.761 169.942C167.746 169.788 167.739 169.634 167.74 169.479V139.463C167.74 135.24 171.113 131.824 175.281 131.824H226.053C229.094 134.03 231.07 137.636 231.07 141.72Z" fill="#68E1FD"/>
<path d="M228.952 134.609H176.411C176.563 134.399 176.728 134.201 176.904 134.016H228.517C228.675 134.21 228.815 134.391 228.952 134.609ZM230.456 137.677H175.023C175.061 137.476 175.109 137.278 175.168 137.084H230.249C230.323 137.279 230.394 137.478 230.456 137.677ZM231.048 140.746H174.857V140.152H231.003C231.003 140.347 231.036 140.546 231.048 140.746ZM174.857 143.221H231.073V143.814H174.857V143.221ZM174.857 146.289H231.073V146.882H174.857V146.289ZM174.857 149.357H231.073V149.951H174.857V149.357ZM174.857 152.43H231.073V153.019H174.857V152.43ZM174.857 155.499H231.073V156.087H174.857V155.499ZM174.857 158.567H231.073V159.156H174.857V158.567ZM174.857 161.635H231.073V162.224H174.857V161.635ZM174.857 164.704H231.073V165.297H174.857V164.704ZM231.077 167.763C231.068 167.96 231.068 168.159 231.077 168.356H174.857V167.763H231.077ZM230.253 170.84C230.253 171.04 230.025 171.234 230.009 171.434H175.118C175.063 171.239 175.019 171.041 174.986 170.84H230.253Z" fill="white"/>
<path d="M178.429 134.609H51.2694C51.4061 134.41 51.547 134.21 51.6837 134.016H177.418C177.766 134.21 178.102 134.391 178.429 134.609ZM177.286 137.677H49.7655C49.8318 137.478 49.9022 137.283 49.9768 137.084H176.785C176.961 137.271 177.129 137.469 177.286 137.677ZM178.695 140.746H49.1813C49.1813 140.546 49.2103 140.352 49.2311 140.157H178.57C178.622 140.35 178.663 140.547 178.695 140.746ZM49.1523 143.221H178.753V143.809H49.1523V143.221ZM49.1523 146.289H178.753V146.878H49.1523V146.289ZM49.1523 149.357H178.753V149.951H49.1523V149.357ZM49.1523 152.43H178.753V153.019H49.1523V152.43ZM49.1523 155.503H178.753V156.087H49.1523V155.503ZM49.1523 158.567H178.753V159.151H49.1523V158.567ZM49.1523 161.635H178.753V162.224H49.1523V161.635ZM49.1523 164.704H178.753V165.297H49.1523V164.704ZM178.579 167.763C178.523 167.965 178.458 168.163 178.384 168.356H49.3098C49.2808 168.161 49.2518 167.967 49.2311 167.763H178.579ZM176.801 170.845C176.616 171.053 176.421 171.249 176.217 171.434H50.2171C50.1301 171.239 50.0472 171.04 49.9727 170.845H176.801Z" fill="white"/>
<path opacity="0.2" d="M183.272 123.73C181.403 126.243 178.988 128.769 178.031 129.33C172.587 132.537 166.281 135.017 163.087 140.88C159.044 148.296 161.658 157.997 159.802 166.442C159.462 167.981 158.936 169.552 157.871 170.613C156.807 171.675 155.095 172.036 153.964 171.077C152.97 170.238 152.722 168.718 152.535 167.341C150.902 154.346 150.841 141.165 152.353 128.152C146.138 131.258 141.933 137.812 138.615 144.44C135.296 151.068 132.512 158.173 127.889 163.74C126.575 165.315 124.848 166.859 122.942 166.553C120.651 163.309 121.852 158.567 123.153 154.683C125.759 146.882 128.373 139.063 131.729 131.624C132.815 129.214 134.02 126.794 135.843 125.024C136.342 124.541 136.88 124.111 137.451 123.74L183.272 123.73Z" fill="#3F3D56"/>
<path d="M228.543 173.914C228.402 174.123 228.244 174.285 228.087 174.503H52.1642C51.9985 174.313 51.8369 174.113 51.6836 173.914H228.543Z" fill="white"/>
<path d="M90.2252 248.925H68.9676C62.1525 247.007 58.8505 238.761 58.8505 238.761C58.8505 238.761 58.2332 198.437 58.8505 193.338C59.4678 188.24 69.7921 184.578 69.7921 184.578H90.2252C83.41 185.672 78.4592 193.106 78.4592 193.106C78.4592 193.106 78.0449 237.672 78.4592 240.671C78.8735 243.669 90.2252 248.925 90.2252 248.925Z" fill="url(#paint13_linear_99_6619)"/>
<path d="M90.2256 248.925H83.4104C76.6035 247.007 73.3016 238.761 73.3016 238.761C73.3016 238.761 72.6801 198.437 73.3016 193.338C73.923 188.24 84.239 184.578 84.239 184.578H90.2256C83.4104 185.672 78.4596 193.106 78.4596 193.106C78.4596 193.106 78.0453 237.672 78.4596 240.671C78.8739 243.669 90.2256 248.925 90.2256 248.925Z" fill="url(#paint14_linear_99_6619)"/>
<path d="M119.831 152.861L117.851 156.708L122.449 158.947L124.351 155.285L119.831 152.861Z" fill="url(#paint15_linear_99_6619)"/>
<path d="M150.75 163.193L150.534 167.481L155.547 167.156L155.758 163.193H150.75Z" fill="url(#paint16_linear_99_6619)"/>
<path d="M118.754 155.856C118.653 155.623 118.512 155.414 118.34 155.24C118.136 155.089 117.903 154.994 117.66 154.962L109.702 153.173C109.414 153.093 109.119 153.057 108.823 153.066C108.061 153.122 107.435 153.747 106.934 154.392C106.647 154.696 106.462 155.102 106.412 155.541C106.441 155.817 106.521 156.082 106.647 156.322C106.772 156.561 106.941 156.769 107.141 156.931C107.7 157.512 108.288 158.056 108.902 158.563C110.081 159.488 111.308 160.335 112.577 161.098C113.43 161.636 114.284 162.174 115.158 162.665C116.596 163.471 118.087 164.148 119.587 164.806C119.636 164.841 119.691 164.864 119.749 164.875C119.806 164.885 119.865 164.883 119.922 164.868C119.978 164.853 120.032 164.825 120.079 164.787C120.126 164.748 120.166 164.7 120.196 164.644C121.281 163.378 122.136 161.889 122.715 160.259C122.86 159.856 123.129 158.971 122.715 158.637C122.57 158.521 122.16 158.54 121.977 158.493C121.706 158.42 121.44 158.322 121.182 158.201C120.172 157.726 119.322 156.905 118.754 155.856ZM151.044 165.534C150.852 165.39 150.637 165.288 150.41 165.233C150.166 165.217 149.923 165.265 149.698 165.372L142.017 168.306C141.733 168.398 141.461 168.532 141.209 168.704C140.575 169.168 140.314 170.095 140.169 170.915C140.058 171.339 140.083 171.793 140.239 172.199C140.387 172.419 140.573 172.602 140.787 172.737C141.001 172.872 141.238 172.955 141.482 172.982C142.226 173.17 142.978 173.309 143.736 173.4C145.17 173.539 146.61 173.58 148.049 173.525C149.031 173.525 150.009 173.497 150.986 173.427C152.594 173.316 154.189 173.061 155.776 172.788C155.891 172.793 156.003 172.747 156.088 172.66C156.173 172.574 156.225 172.453 156.231 172.324C156.599 170.619 156.671 168.85 156.443 167.115C156.385 166.683 156.206 165.775 155.705 165.724C155.527 165.701 155.183 165.951 155.005 166.011C154.735 166.104 154.457 166.169 154.176 166.206C153.095 166.358 151.998 166.123 151.044 165.534ZM182.141 107.717C182.141 107.717 180.84 121.34 169.617 123.74C162.019 125.367 152.726 124.788 147.523 124.246C146.292 124.119 145.054 124.375 143.946 124.986C142.837 125.597 141.902 126.539 141.242 127.708L125.084 156.5L120.403 153.97H120.366L118.708 153.08L132.165 117.956C132.955 115.774 134.168 113.816 135.717 112.222C137.266 110.629 139.112 109.44 141.122 108.742L156.579 103.388L160.192 102.137C160.192 102.137 174.659 100.505 182.141 107.717Z" fill="#3F3D56"/>
<path opacity="0.24" d="M156.592 103.369L157.607 105.775C157.607 105.775 139.792 111.615 137.605 114.456C134.684 118.257 120.407 153.969 120.407 153.969H120.37L118.713 153.079L132.169 117.955C132.96 115.774 134.173 113.815 135.722 112.222C137.271 110.628 139.117 109.439 141.126 108.741L156.592 103.369Z" fill="white"/>
<path d="M162.918 105.354C162.918 105.354 148.608 120.95 148.144 129.293C147.68 137.636 149.681 163.796 149.681 163.796H156.625C156.625 163.796 156.281 132.037 159.11 131.815C161.94 131.592 174.767 122.368 176.826 119.722C178.885 117.075 182.17 107.708 182.17 107.708L162.918 105.354Z" fill="#3F3D56"/>
<path d="M182.141 107.716C182.141 107.716 170.67 114.265 158.759 106.604C157.719 105.936 156.721 105.191 155.771 104.374C155.771 104.374 160.793 94.3395 156.795 79.7625C155.084 73.5285 155.046 61.6259 163.519 59.9295H163.56C171.987 58.2563 171.511 60.583 171.511 60.583L175.322 64.7267C182.651 71.3964 183.455 81.5794 182.141 107.716Z" fill="#68E1FD"/>
<path opacity="0.24" d="M163.56 59.9219C163.207 60.7793 162.66 61.519 161.974 62.0679C161.974 62.0679 156.936 64.5661 157.942 72.8303C158.949 81.0944 160.793 96.9878 160.793 96.9878L158.759 106.605C157.719 105.938 156.721 105.193 155.771 104.376C155.771 104.376 160.793 94.3412 156.795 79.7642C155.084 73.5302 155.046 61.6275 163.519 59.9311L163.56 59.9219Z" fill="white"/>
<path d="M171.137 59.3926C170.679 60.0039 170.116 60.5051 169.48 60.8658C168.844 61.2265 168.15 61.4393 167.438 61.4913C166.727 61.5433 166.014 61.4334 165.341 61.1683C164.669 60.9031 164.052 60.4883 163.527 59.9488C163.527 59.9488 157.312 66.9012 163.593 67.7402C166.907 68.2037 170.988 63.717 172.169 61.1817L171.137 59.3926Z" fill="#3F3D56"/>
<path d="M173.002 52.8809C172.977 52.9736 171.809 56.9735 170.93 59.8333C170.279 62.0624 168.896 63.9324 167.061 65.0662C165.984 65.7932 164.785 66.2663 163.539 66.4567C163.241 66.4871 162.942 66.4249 162.674 66.277C162.405 66.129 162.179 65.9011 162.019 65.6182C161.859 65.3354 161.772 65.0087 161.768 64.6741C161.763 64.3395 161.842 64.01 161.994 63.7221C162.284 63.152 162.599 62.4938 162.889 61.7939C163.494 60.3385 163.999 58.7209 163.916 57.4417V57.3026C163.842 56.6352 164.231 56.0465 164.886 55.5321C165.81 54.8136 167.264 54.2482 168.685 53.8218C170.107 53.4185 171.548 53.1044 173.002 52.8809Z" fill="url(#paint17_linear_99_6619)"/>
<path d="M163.792 61.7376C163.507 61.8018 163.216 61.8252 162.926 61.8071C163.531 60.3517 164.036 58.7341 163.953 57.4549L164.914 55.5453L165.631 54.127L168.714 53.835L171.829 53.543C169.774 58.9798 166.323 61.2324 163.792 61.7376Z" fill="url(#paint18_linear_99_6619)"/>
<path d="M169.579 34.5913C168.452 34.327 167.288 34.3263 166.161 34.5894C165.033 34.8526 163.966 35.3738 163.027 36.1203C162.089 36.8668 161.298 37.8225 160.705 38.9274C160.112 40.0322 159.73 41.2623 159.582 42.5403C158.945 46.2863 158.919 50.1302 159.504 53.8867C160.925 59.7036 168.56 57.5947 170.11 55.8288C171.659 54.0629 177.886 45.9238 176.867 42.7582C176.216 40.6075 173.938 35.6945 169.579 34.5913Z" fill="url(#paint19_linear_99_6619)"/>
<path d="M163.428 28.9182L164.604 30.1047C163.796 29.8381 162.942 29.7902 162.114 29.9651C161.285 30.1399 160.506 30.5325 159.84 31.1105C158.251 32.1282 157.084 33.805 156.592 35.7779L159.206 35.2542C159.206 35.2542 158.253 38.4013 162.587 39.9726C166.92 41.5439 171.519 43.1522 171.519 43.1522L170.591 40.3712C170.591 40.3712 173.023 42.4199 173.226 43.6991C173.218 45.6393 173.08 47.576 172.811 49.4928C172.811 49.4928 174.668 46.6655 174.949 47.4905C175.231 48.3156 173.615 50.8972 172.878 51.3561C172.14 51.815 171.792 53.7199 171.701 53.859C171.61 53.998 175.016 52.2645 175.351 51.4117C175.687 50.5589 180.621 42.443 179.275 40.0143L180.389 40.2507C179.859 39.5685 179.199 39.0271 178.458 38.6655C178.458 38.6655 173.831 25.9333 163.428 28.9182Z" fill="#3F3D56"/>
<path d="M161.786 97.3573C161.161 96.6574 160.544 95.8231 159.669 95.6562C159.363 96.472 159.988 97.3109 160.254 98.1406C160.294 98.2331 160.314 98.3345 160.314 98.4372C160.314 98.54 160.294 98.6414 160.254 98.7339C160.129 98.9564 159.839 98.9703 159.611 98.9517C158.506 98.8631 157.421 98.5718 156.401 98.0896C155.456 97.6261 154.549 97.0282 153.525 96.9123C153.416 96.8878 153.303 96.9041 153.202 96.9587C152.954 97.1348 153.099 97.5612 153.277 97.8208C153.657 98.3813 154.089 98.8955 154.565 99.355C153.843 98.9982 153.073 98.7774 152.287 98.7014C152.067 98.7014 151.769 98.7524 151.773 98.9981C151.787 99.0991 151.831 99.1919 151.897 99.2623C152.48 100.008 153.182 100.625 153.969 101.079C153.397 100.944 152.812 100.89 152.229 100.917C151.976 100.917 151.64 101.065 151.678 101.343C151.696 101.434 151.736 101.517 151.794 101.584C152.494 102.532 153.441 103.211 154.503 103.526L152.846 103.568C152.742 103.562 152.638 103.586 152.544 103.638C152.245 103.851 152.506 104.375 152.796 104.602C154.072 105.598 155.696 105.774 157.258 105.9C160.245 106.141 163.39 106.27 166.083 104.796C166.277 104.685 166.497 104.537 166.534 104.296C166.543 104.17 166.526 104.043 166.485 103.925C166.157 102.706 165.992 100.495 165.001 99.7536C164.521 99.3967 163.928 99.1927 163.435 98.8266C162.942 98.4604 162.35 97.6725 161.786 97.3573Z" fill="url(#paint20_linear_99_6619)"/>
<path d="M184.573 94.7713C183.637 105.066 166.941 106.326 166.941 106.326L165.221 99.7122L164.919 98.5488C164.919 98.5488 173.851 97.2881 175.558 94.1594C177.265 91.0308 170.239 80.5419 174.485 74.6926C178.732 68.8432 179.697 70.6416 179.697 70.6416C179.697 70.6416 185.501 84.477 184.573 94.7713Z" fill="#68E1FD"/>
<path d="M139.779 79.3828C139.779 79.3828 139.779 79.7675 139.709 80.3469C139.568 81.7884 139.166 84.4257 138.097 85.3851C136.593 86.7339 136.386 84.7687 136.419 83.9946C136.452 83.5696 136.515 83.1482 136.606 82.7339C136.954 81.056 138.797 79.9066 139.506 79.5265L139.779 79.3828Z" fill="url(#paint21_linear_99_6619)"/>
<path d="M139.709 80.3473C139.568 81.7888 139.166 84.4261 138.097 85.3855C137.633 85.0101 137.036 84.5095 136.419 83.995C135.591 83.2998 134.708 82.5675 134.083 82.0576C133.526 81.6399 133.019 81.1446 132.574 80.5837C132.187 80.0127 131.864 79.3899 131.613 78.7297L130.329 75.6057C129.915 74.5814 129.5 73.228 130.238 72.4354C130.424 72.2315 132.123 71.8607 132.235 71.5919C132.545 70.8224 130.578 69.1956 130.702 68.3474C130.763 68.1163 130.895 67.9167 131.075 67.783C131.254 67.6492 131.469 67.5898 131.684 67.615C132.098 67.6382 133.275 68.8479 133.643 69.0936C134.373 69.5571 133.759 70.2153 134.472 70.6973C135.397 71.2285 136.237 71.927 136.958 72.7645C137.761 73.8166 138.167 75.1654 138.553 76.4725C138.834 77.4319 139.212 78.4702 139.502 79.5038C139.58 79.8004 139.651 80.0739 139.709 80.3473Z" fill="url(#paint22_linear_99_6619)"/>
<path d="M133.615 72.9596L130.851 58.2991L129.828 52.8809L145.886 57.6966L150.547 92.7695L135.624 87.6803L133.615 72.9596Z" fill="#68E1FD"/>
<path d="M136.958 72.7823L130.603 56.9863L135.624 87.6791L150.547 92.7683L148.948 80.7406L136.958 72.7823Z" fill="url(#paint23_linear_99_6619)"/>
<path d="M134.53 79.2819C135.036 78.9992 136.071 78.4847 136.332 77.9238C136.394 77.7894 136.486 77.6133 136.407 77.4928C136.046 76.9366 134.563 77.6457 134.141 77.4928C134.431 76.9598 137.016 75.3422 135.798 74.976C135.537 74.8972 133.917 75.8149 133.656 75.7315C133.859 75.5461 135.524 74.2205 135.81 73.8775C135.893 73.7753 135.942 73.6448 135.949 73.5074C135.957 73.3699 135.922 73.2337 135.852 73.1211C135.781 73.0084 135.678 72.9261 135.56 72.8875C135.442 72.8489 135.315 72.8564 135.201 72.9088C134.319 73.362 133.415 73.7582 132.492 74.0954C132.67 73.7663 135.077 72.2414 135.172 71.852C135.222 71.7118 135.23 71.5578 135.197 71.4117C135.163 71.3297 135.114 71.2564 135.054 71.1966C134.993 71.1367 134.922 71.0916 134.845 71.0641C134.174 70.7721 133.42 71.0641 132.749 71.3654L131.158 72.0699C130.648 72.2923 130.085 72.5797 129.915 73.1545C129.84 73.4453 129.828 73.7516 129.878 74.049C130.075 75.9174 130.674 77.7047 131.622 79.2587C132.094 80.0281 133.586 81.8867 134.443 82.0675C135.205 82.2297 133.822 79.699 134.53 79.2819Z" fill="url(#paint24_linear_99_6619)"/>
<path opacity="0.24" d="M151.144 126.794C151.144 126.794 156.621 112.755 162.951 108.76L160.793 107.782C160.793 107.782 149.677 121.005 148.364 127.809C147.051 134.614 149.686 163.809 149.686 163.809H151.508C151.508 163.809 148.497 129.659 151.144 126.794ZM176.043 96.3843C172.517 98.0066 166.514 99.4202 165.222 99.7169L164.973 99.7725L164.919 98.5535C164.919 98.5535 173.851 97.2928 175.558 94.1642C177.265 91.0356 170.239 80.5466 174.485 74.6973C174.485 74.6973 173.947 79.8699 175.343 83.6938C176.739 87.5176 180.004 94.5581 176.043 96.3843Z" fill="white"/>
</g>
<defs>
<linearGradient id="paint0_linear_99_6619" x1="174.12" y1="328.62" x2="90.7882" y2="-84.158" gradientUnits="userSpaceOnUse">
<stop offset="0.02" stop-color="#68E1FD"/>
<stop offset="1" stop-color="white" stop-opacity="0"/>
</linearGradient>
<linearGradient id="paint1_linear_99_6619" x1="243.693" y1="121.918" x2="273.633" y2="162.7" gradientUnits="userSpaceOnUse">
<stop stop-color="white" stop-opacity="0"/>
<stop offset="0.99" stop-color="white"/>
</linearGradient>
<linearGradient id="paint2_linear_99_6619" x1="145.7" y1="158.075" x2="146.618" y2="83.8065" gradientUnits="userSpaceOnUse">
<stop stop-color="white" stop-opacity="0"/>
<stop offset="0.99" stop-color="white"/>
</linearGradient>
<linearGradient id="paint3_linear_99_6619" x1="170.794" y1="97.5437" x2="129.174" y2="187.032" gradientUnits="userSpaceOnUse">
<stop offset="0.17" stop-color="#00272E"/>
<stop offset="1" stop-color="#69B9EB" stop-opacity="0"/>
</linearGradient>
<linearGradient id="paint4_linear_99_6619" x1="120.196" y1="209.501" x2="122.383" y2="265.79" gradientUnits="userSpaceOnUse">
<stop offset="0.17" stop-color="#00272E"/>
<stop offset="1" stop-color="#69B9EB" stop-opacity="0"/>
</linearGradient>
<linearGradient id="paint5_linear_99_6619" x1="122.392" y1="178.548" x2="119.643" y2="209.275" gradientUnits="userSpaceOnUse">
<stop stop-color="white" stop-opacity="0"/>
<stop offset="0.99" stop-color="white"/>
</linearGradient>
<linearGradient id="paint6_linear_99_6619" x1="154.562" y1="216.343" x2="224.488" y2="217.032" gradientUnits="userSpaceOnUse">
<stop offset="0.18" stop-color="#00272E"/>
<stop offset="1" stop-color="#69B9EB" stop-opacity="0"/>
</linearGradient>
<linearGradient id="paint7_linear_99_6619" x1="274.567" y1="221.094" x2="170.673" y2="213.436" gradientUnits="userSpaceOnUse">
<stop stop-color="#68E1FD"/>
<stop offset="1" stop-color="white"/>
</linearGradient>
<linearGradient id="paint8_linear_99_6619" x1="231.798" y1="157.029" x2="173.855" y2="152.761" gradientUnits="userSpaceOnUse">
<stop stop-color="#68E1FD"/>
<stop offset="1" stop-color="white"/>
</linearGradient>
<linearGradient id="paint9_linear_99_6619" x1="176.847" y1="154.353" x2="23.0349" y2="154.353" gradientUnits="userSpaceOnUse">
<stop stop-color="white" stop-opacity="0"/>
<stop offset="0.99" stop-color="white"/>
</linearGradient>
<linearGradient id="paint10_linear_99_6619" x1="226.977" y1="179.563" x2="228.058" y2="179.563" gradientUnits="userSpaceOnUse">
<stop stop-color="#68E1FD"/>
<stop offset="1" stop-color="#69B9EB"/>
</linearGradient>
<linearGradient id="paint11_linear_99_6619" x1="228.563" y1="134.988" x2="229.144" y2="134.988" gradientUnits="userSpaceOnUse">
<stop stop-color="#68E1FD"/>
<stop offset="1" stop-color="#69B9EB"/>
</linearGradient>
<linearGradient id="paint12_linear_99_6619" x1="230.357" y1="138.502" x2="230.548" y2="138.502" gradientUnits="userSpaceOnUse">
<stop stop-color="#68E1FD"/>
<stop offset="1" stop-color="#69B9EB"/>
</linearGradient>
<linearGradient id="paint13_linear_99_6619" x1="68.4953" y1="262.39" x2="86.2011" y2="165.821" gradientUnits="userSpaceOnUse">
<stop stop-color="white" stop-opacity="0"/>
<stop offset="0.99" stop-color="white"/>
</linearGradient>
<linearGradient id="paint14_linear_99_6619" x1="84.2597" y1="186.446" x2="76.2665" y2="274.964" gradientUnits="userSpaceOnUse">
<stop offset="0.02" stop-color="#68E1FD"/>
<stop offset="1" stop-color="white"/>
</linearGradient>
<linearGradient id="paint15_linear_99_6619" x1="125.068" y1="156.268" x2="115.493" y2="155.56" gradientUnits="userSpaceOnUse">
<stop stop-color="#ECC4D7"/>
<stop offset="0.42" stop-color="#EFD4D1"/>
<stop offset="1" stop-color="#F2EAC9"/>
</linearGradient>
<linearGradient id="paint16_linear_99_6619" x1="156.704" y1="163.522" x2="147.691" y2="166.801" gradientUnits="userSpaceOnUse">
<stop stop-color="#ECC4D7"/>
<stop offset="0.42" stop-color="#EFD4D1"/>
<stop offset="1" stop-color="#F2EAC9"/>
</linearGradient>
<linearGradient id="paint17_linear_99_6619" x1="163.34" y1="59.6322" x2="171.307" y2="61.5403" gradientUnits="userSpaceOnUse">
<stop stop-color="#ECC4D7"/>
<stop offset="0.42" stop-color="#EFD4D1"/>
<stop offset="1" stop-color="#F2EAC9"/>
</linearGradient>
<linearGradient id="paint18_linear_99_6619" x1="170.029" y1="54.8037" x2="147.847" y2="73.9455" gradientUnits="userSpaceOnUse">
<stop stop-color="#ECC4D7"/>
<stop offset="0.42" stop-color="#EFD4D1"/>
<stop offset="1" stop-color="#F2EAC9"/>
</linearGradient>
<linearGradient id="paint19_linear_99_6619" x1="159.19" y1="45.3126" x2="176.061" y2="49.3532" gradientUnits="userSpaceOnUse">
<stop stop-color="#ECC4D7"/>
<stop offset="0.42" stop-color="#EFD4D1"/>
<stop offset="1" stop-color="#F2EAC9"/>
</linearGradient>
<linearGradient id="paint20_linear_99_6619" x1="151.657" y1="100.861" x2="166.509" y2="100.861" gradientUnits="userSpaceOnUse">
<stop stop-color="#ECC4D7"/>
<stop offset="0.42" stop-color="#EFD4D1"/>
<stop offset="1" stop-color="#F2EAC9"/>
</linearGradient>
<linearGradient id="paint21_linear_99_6619" x1="136.419" y1="82.6134" x2="139.779" y2="82.6134" gradientUnits="userSpaceOnUse">
<stop stop-color="#183866"/>
<stop offset="1" stop-color="#1A7FC1"/>
</linearGradient>
<linearGradient id="paint22_linear_99_6619" x1="129.828" y1="76.5096" x2="139.709" y2="76.5096" gradientUnits="userSpaceOnUse">
<stop stop-color="#ECC4D7"/>
<stop offset="0.42" stop-color="#EFD4D1"/>
<stop offset="1" stop-color="#F2EAC9"/>
</linearGradient>
<linearGradient id="paint23_linear_99_6619" x1="135.512" y1="65.8808" x2="159.64" y2="118.031" gradientUnits="userSpaceOnUse">
<stop stop-color="white" stop-opacity="0"/>
<stop offset="0.99" stop-color="white"/>
</linearGradient>
<linearGradient id="paint24_linear_99_6619" x1="129.828" y1="76.5055" x2="136.44" y2="76.5055" gradientUnits="userSpaceOnUse">
<stop stop-color="#ECC4D7"/>
<stop offset="0.42" stop-color="#EFD4D1"/>
<stop offset="1" stop-color="#F2EAC9"/>
</linearGradient>
<clipPath id="clip0_99_6619">
<rect width="335" height="277" fill="white"/>
</clipPath>
</defs>
</svg>
