<svg width="323" height="264" viewBox="0 0 323 264" fill="none" xmlns="http://www.w3.org/2000/svg">
<g clip-path="url(#clip0_123_2152)">
<path d="M15.8225 243.382C15.9577 250.081 16.8029 256.721 18.3332 263.107C18.3671 263.256 18.4048 263.402 18.4414 263.55H27.8101C27.8003 263.417 27.7901 263.269 27.7803 263.107C27.1556 253.572 30.7242 196.228 35.0305 186.303C34.6532 187.108 15.0961 213.083 15.8225 243.382Z" fill="#CCCCCC"/>
<path d="M16.5248 263.106C16.6032 263.254 16.6846 263.403 16.7681 263.549H23.7967C23.7434 263.422 23.6817 263.274 23.6101 263.106C22.4491 260.324 19.0124 252.005 15.8225 243.381C12.3957 234.113 9.24915 224.493 9.51413 221.012C9.43202 221.797 7.05975 245.734 16.5248 263.106Z" fill="#CCCCCC"/>
<path d="M220.974 54.3213C221.242 55.2019 221.653 55.9938 222.176 56.6411C222.7 57.2884 223.324 57.7754 224.004 58.0678C224.685 58.3602 225.406 58.4509 226.116 58.3335C226.826 58.2161 227.507 57.8934 228.113 57.3883L241.678 71.836L242.517 59.8892L229.508 48.0009C228.801 46.7058 227.761 45.7999 226.585 45.4547C225.409 45.1096 224.179 45.3493 223.127 46.1283C222.075 46.9074 221.275 48.1717 220.878 49.6817C220.481 51.1917 220.516 52.8425 220.974 54.3213Z" fill="#9F616A"/>
<path d="M241.98 58.7673L236.917 54.0176L231.175 62.8273L237.855 68.0839L241.98 58.7673Z" fill="#6C63FF"/>
<path d="M240.872 55.5458L257.933 64.2628L274.358 49.9825C276.055 48.5066 278.099 47.9015 280.108 48.28C282.117 48.6585 283.953 49.9948 285.274 52.0395C286.595 54.0841 287.311 56.6973 287.287 59.3912C287.263 62.085 286.502 64.6754 285.146 66.6786L284.999 66.8952L259.737 84.8789L232.145 68.1411L240.872 55.5458Z" fill="#3F3D56"/>
<path d="M236.061 262.648H58.2754L64.7218 95.5078H92.5433L118.198 119.385H242.508L236.061 262.648Z" fill="#D5D4D4"/>
<path d="M192.541 211.68L89.7833 155.488C89.424 155.291 89.1383 154.913 88.9889 154.436C88.8394 153.96 88.8383 153.424 88.9859 152.947L135.547 2.82192C135.696 2.34491 135.981 1.96555 136.34 1.76707C136.698 1.56858 137.102 1.56718 137.461 1.76318L240.219 57.9547C240.578 58.1518 240.864 58.53 241.014 59.0065C241.163 59.4829 241.164 60.0186 241.016 60.4961L194.455 210.621C194.307 211.098 194.022 211.477 193.663 211.676C193.304 211.874 192.901 211.875 192.541 211.68Z" fill="white"/>
<path d="M192.541 211.68L89.7833 155.488C89.424 155.291 89.1383 154.913 88.9889 154.436C88.8394 153.96 88.8383 153.424 88.9859 152.947L135.547 2.82192C135.696 2.34491 135.981 1.96555 136.34 1.76707C136.698 1.56858 137.102 1.56718 137.461 1.76318L240.219 57.9547C240.578 58.1518 240.864 58.53 241.014 59.0065C241.163 59.4829 241.164 60.0186 241.016 60.4961L194.455 210.621C194.307 211.098 194.022 211.477 193.663 211.676C193.304 211.874 192.901 211.875 192.541 211.68ZM137.238 2.4832C137.022 2.36559 136.78 2.36642 136.565 2.48551C136.35 2.6046 136.179 2.83223 136.09 3.11845L89.5282 153.243C89.4396 153.53 89.4402 153.851 89.5299 154.137C89.6196 154.423 89.791 154.65 90.0066 154.768L192.764 210.959C192.98 211.077 193.222 211.076 193.437 210.957C193.653 210.838 193.824 210.61 193.913 210.324L240.474 60.1995C240.563 59.9131 240.562 59.5916 240.472 59.3058C240.383 59.0199 240.211 58.793 239.996 58.6747L137.238 2.4832Z" fill="#3F3D56"/>
<path d="M166.261 76.0766L140.774 62.1399C140.415 61.9428 140.13 61.5646 139.98 61.0881C139.831 60.6117 139.83 60.076 139.977 59.5985L150.473 25.7575C150.621 25.2805 150.906 24.9011 151.265 24.7026C151.624 24.5041 152.027 24.5027 152.387 24.6987L177.873 38.6354C178.232 38.8325 178.518 39.2107 178.667 39.6872C178.817 40.1636 178.818 40.6993 178.67 41.1768L168.175 75.0178C168.026 75.4948 167.741 75.8742 167.382 76.0727C167.024 76.2712 166.62 76.2726 166.261 76.0766ZM152.164 25.4187C151.948 25.3011 151.706 25.302 151.491 25.4211C151.275 25.5402 151.104 25.7678 151.015 26.054L140.519 59.8951C140.431 60.1815 140.431 60.503 140.521 60.7888C140.611 61.0747 140.782 61.3016 140.998 61.4199L166.484 75.3566C166.7 75.4742 166.942 75.4733 167.157 75.3542C167.372 75.2352 167.543 75.0075 167.632 74.7213L178.128 40.8803C178.217 40.5938 178.216 40.2724 178.126 39.9865C178.037 39.7006 177.865 39.4737 177.65 39.3554L152.164 25.4187Z" fill="#F2F2F2"/>
<path d="M157.656 76.2137L132.17 62.277C131.847 62.0997 131.59 61.7592 131.455 61.3304C131.321 60.9016 131.32 60.4195 131.452 59.9898L141.948 26.1487C142.082 25.7194 142.338 25.378 142.661 25.1993C142.984 25.0207 143.347 25.0195 143.671 25.1959L169.157 39.1325C169.48 39.3099 169.737 39.6503 169.872 40.0791C170.007 40.5079 170.007 40.9901 169.875 41.4198L159.379 75.2608C159.245 75.6902 158.989 76.0316 158.666 76.2102C158.343 76.3889 157.98 76.3901 157.656 76.2137Z" fill="#6C63FF"/>
<path d="M206.746 122.426L127.034 78.8369C126.874 78.7493 126.728 78.6206 126.605 78.4583C126.482 78.2959 126.385 78.1031 126.318 77.8907C126.252 77.6783 126.217 77.4505 126.217 77.2205C126.216 76.9904 126.25 76.7624 126.316 76.5497C126.382 76.337 126.479 76.1436 126.601 75.9805C126.724 75.8175 126.869 75.6881 127.029 75.5996C127.189 75.5111 127.36 75.4653 127.534 75.4648C127.707 75.4644 127.879 75.5092 128.039 75.5968L207.751 119.186C208.074 119.363 208.332 119.703 208.466 120.132C208.601 120.561 208.601 121.044 208.468 121.473C208.335 121.903 208.079 122.245 207.756 122.423C207.432 122.602 207.069 122.603 206.746 122.426Z" fill="#CCCCCC"/>
<path d="M184.034 123.06L123.572 89.9971C123.412 89.9095 123.266 89.7808 123.143 89.6185C123.02 89.4561 122.923 89.2632 122.856 89.0508C122.79 88.8384 122.755 88.6107 122.755 88.3806C122.755 88.1505 122.788 87.9226 122.854 87.7099C122.92 87.4971 123.017 87.3037 123.139 87.1407C123.262 86.9777 123.407 86.8482 123.567 86.7597C123.727 86.6713 123.898 86.6255 124.072 86.625C124.245 86.6245 124.417 86.6694 124.577 86.757L185.039 119.82C185.362 119.997 185.619 120.337 185.754 120.766C185.889 121.195 185.889 121.677 185.756 122.107C185.623 122.536 185.367 122.878 185.043 123.057C184.72 123.236 184.357 123.237 184.034 123.06Z" fill="#CCCCCC"/>
<path d="M219.203 81.2361L183.957 61.9619C183.796 61.8743 183.651 61.7456 183.528 61.5833C183.405 61.4209 183.308 61.228 183.241 61.0157C183.174 60.8033 183.14 60.5755 183.14 60.3455C183.139 60.1154 183.173 59.8874 183.239 59.6747C183.305 59.462 183.402 59.2686 183.524 59.1055C183.647 58.9425 183.792 58.8131 183.952 58.7246C184.112 58.6361 184.283 58.5903 184.456 58.5898C184.63 58.5894 184.801 58.6342 184.962 58.7218L220.208 77.996C220.532 78.1729 220.789 78.5133 220.924 78.9423C221.058 79.3712 221.059 79.8535 220.926 80.2832C220.793 80.7129 220.536 81.0546 220.213 81.2333C219.89 81.412 219.527 81.413 219.203 81.2361Z" fill="#CCCCCC"/>
<path d="M206.946 87.588L180.496 73.124C180.172 72.9471 179.915 72.6067 179.78 72.1778C179.646 71.7488 179.645 71.2665 179.778 70.8368C179.911 70.4072 180.168 70.0654 180.491 69.8867C180.814 69.708 181.177 69.707 181.501 69.884L207.951 84.3479C208.275 84.5249 208.532 84.8653 208.667 85.2942C208.801 85.7231 208.802 86.2055 208.669 86.6351C208.535 87.0648 208.279 87.4066 207.956 87.5853C207.633 87.764 207.27 87.765 206.946 87.588Z" fill="#CCCCCC"/>
<path d="M199.823 144.746L120.111 101.157C119.951 101.07 119.805 100.941 119.682 100.779C119.56 100.616 119.462 100.423 119.395 100.211C119.329 99.9986 119.294 99.7708 119.294 99.5408C119.294 99.3107 119.327 99.0828 119.393 98.87C119.459 98.6573 119.556 98.4639 119.679 98.3008C119.801 98.1378 119.946 98.0084 120.106 97.9199C120.266 97.8314 120.437 97.7856 120.611 97.7852C120.784 97.7847 120.956 97.8295 121.116 97.9172L200.828 141.506C201.151 141.683 201.409 142.024 201.543 142.453C201.678 142.882 201.679 143.364 201.545 143.794C201.412 144.223 201.156 144.565 200.833 144.744C200.51 144.922 200.146 144.923 199.823 144.746Z" fill="#CCCCCC"/>
<path d="M177.111 145.38L116.649 112.317C116.489 112.23 116.343 112.101 116.22 111.939C116.098 111.776 116 111.584 115.934 111.371C115.867 111.159 115.832 110.931 115.832 110.701C115.832 110.471 115.865 110.243 115.931 110.03C115.997 109.817 116.094 109.624 116.217 109.461C116.339 109.298 116.484 109.169 116.644 109.08C116.804 108.992 116.976 108.946 117.149 108.945C117.322 108.945 117.494 108.99 117.654 109.077L178.116 142.14C178.276 142.227 178.422 142.356 178.544 142.519C178.667 142.681 178.765 142.874 178.831 143.086C178.898 143.299 178.932 143.526 178.933 143.756C178.933 143.986 178.899 144.214 178.833 144.427C178.767 144.64 178.67 144.833 178.548 144.996C178.426 145.159 178.281 145.289 178.121 145.377C177.961 145.466 177.789 145.511 177.616 145.512C177.443 145.512 177.271 145.468 177.111 145.38Z" fill="#CCCCCC"/>
<path d="M192.9 167.069L113.188 123.48C112.865 123.303 112.607 122.962 112.473 122.533C112.338 122.104 112.337 121.622 112.471 121.192C112.604 120.763 112.86 120.421 113.183 120.242C113.506 120.063 113.869 120.062 114.193 120.239L193.905 163.829C194.228 164.006 194.486 164.346 194.62 164.775C194.755 165.204 194.756 165.686 194.622 166.116C194.489 166.545 194.233 166.887 193.91 167.066C193.587 167.245 193.224 167.246 192.9 167.069Z" fill="#CCCCCC"/>
<path d="M189.438 178.229L109.726 134.64C109.403 134.463 109.145 134.122 109.011 133.693C108.876 133.264 108.875 132.782 109.009 132.352C109.142 131.923 109.398 131.581 109.721 131.402C110.044 131.224 110.408 131.223 110.731 131.4L190.443 174.989C190.603 175.076 190.749 175.205 190.872 175.367C190.994 175.53 191.092 175.723 191.158 175.935C191.225 176.147 191.26 176.375 191.26 176.605C191.26 176.835 191.227 177.063 191.161 177.276C191.095 177.489 190.998 177.682 190.875 177.845C190.753 178.008 190.608 178.138 190.448 178.226C190.288 178.315 190.116 178.36 189.943 178.361C189.77 178.361 189.598 178.316 189.438 178.229Z" fill="#CCCCCC"/>
<path d="M150.551 177.399C152.147 177.511 153.746 177.446 155.333 177.205C156.763 176.983 158.251 176.678 159.504 175.68C160.046 175.27 160.507 174.696 160.851 174.004C161.194 173.312 161.409 172.523 161.479 171.7C161.535 170.917 161.401 170.131 161.097 169.456C160.794 168.781 160.336 168.251 159.791 167.944C159.238 167.635 158.632 167.53 158.038 167.64C157.444 167.751 156.883 168.073 156.415 168.572C155.915 169.148 155.52 169.867 155.258 170.675C154.997 171.482 154.876 172.358 154.905 173.236C154.971 176.842 157.12 180.403 159.506 181.903C162.193 183.593 165.863 182.157 166.551 177.996C166.695 177.131 165.807 176.83 165.436 177.386C164.929 178.128 164.655 179.098 164.669 180.099C164.683 181.101 164.985 182.057 165.512 182.773C166.039 183.489 166.752 183.91 167.506 183.951C168.259 183.993 168.996 183.65 169.566 182.994L168.567 182.448C168.857 184.063 169.463 185.549 170.323 186.755C171.182 187.961 172.266 188.845 173.465 189.318C174.057 189.553 174.67 189.677 175.288 189.687C176.038 189.689 176.809 190.189 177.527 190.5L182.699 192.737C183.46 193.066 183.943 191.533 183.176 191.201L178.491 189.175C177.711 188.837 176.932 188.49 176.149 188.162C175.59 187.927 174.977 188.054 174.393 187.916C173.3 187.641 172.289 186.96 171.477 185.951C170.665 184.943 170.085 183.648 169.806 182.219C169.789 182.077 169.745 181.943 169.678 181.83C169.61 181.717 169.522 181.629 169.422 181.574C169.322 181.519 169.213 181.499 169.105 181.517C168.997 181.534 168.895 181.588 168.807 181.673C168.48 182.086 168.043 182.311 167.591 182.299C167.14 182.287 166.71 182.038 166.396 181.607C166.082 181.176 165.908 180.598 165.914 179.998C165.919 179.398 166.103 178.825 166.425 178.405L165.309 177.795C164.865 180.479 162.4 181.486 160.623 180.71C158.635 179.842 156.927 177.316 156.334 174.671C156.176 174.035 156.118 173.363 156.164 172.696C156.209 172.029 156.358 171.382 156.601 170.795C156.818 170.26 157.155 169.828 157.566 169.561C157.977 169.294 158.44 169.204 158.892 169.306C159.294 169.381 159.659 169.662 159.91 170.088C160.16 170.514 160.275 171.053 160.232 171.59C160.166 172.194 159.988 172.768 159.716 173.26C159.444 173.752 159.084 174.147 158.669 174.412C157.551 175.209 156.212 175.407 154.969 175.588C153.553 175.793 152.126 175.847 150.703 175.75C149.905 175.696 149.744 177.345 150.551 177.399Z" fill="#6C63FF"/>
<path d="M236.061 130.649V262.649H58.2754V106.771H86.0968L111.75 130.649H236.061Z" fill="white"/>
<path d="M141.74 237.871H69.1328V245.53H141.74V237.871Z" fill="#6C63FF"/>
<path d="M105.436 223.004H69.1328V230.663H105.436V223.004Z" fill="#6C63FF"/>
<path d="M236.401 263.098H57.9365V106.32H86.2043L111.859 130.197H236.401V263.098ZM58.6151 262.197H235.722V131.098H111.645L85.9902 107.221H58.6151V262.197Z" fill="#3F3D56"/>
<path d="M308.46 247.168L302.444 250.022L291.289 220.571L300.168 216.357L308.46 247.168Z" fill="#9F616A"/>
<path d="M292.681 263.386L292.593 263.06C291.88 260.401 291.99 257.475 292.9 254.924C293.81 252.373 295.444 250.405 297.445 249.452L309.292 243.83L312.078 254.181L292.681 263.386Z" fill="#2F2E41"/>
<path d="M269.341 255.067H262.953L259.914 222.348L269.342 222.348L269.341 255.067Z" fill="#9F616A"/>
<path d="M270.971 263.29L250.372 263.289V262.943C250.372 261.545 250.579 260.16 250.982 258.869C251.385 257.577 251.976 256.403 252.72 255.415C253.465 254.426 254.349 253.642 255.322 253.107C256.294 252.572 257.337 252.297 258.39 252.297H258.39L270.971 252.298L270.971 263.29Z" fill="#2F2E41"/>
<path d="M283.9 46.0356L281.122 38.7461C281.122 38.7461 270.772 42.1893 269.831 50.1544L283.9 46.0356Z" fill="#6C63FF"/>
<path d="M295.364 129.385L287.809 185.37L307.87 232.48L295.885 238.707L275.563 193.041L272.958 180.587L271.394 245.626L260.586 245.19L255.63 184.459L263.578 128.002L295.364 129.385Z" fill="#2F2E41"/>
<path d="M293.8 104.092L293.539 71.2627C293.539 57.3492 286.642 47.094 285.686 46.1454C285.237 44.2393 284.43 42.9217 283.288 42.2322C280.99 40.8488 278.178 42.5089 278.059 42.5836L269.625 46.7822L269.585 46.9359C269.496 47.2873 260.985 84.3681 258.849 93.6745C258.544 95.0097 258.369 95.7739 258.369 95.7739C258.369 95.7739 258.402 97.9259 258.462 101.273C258.65 112.779 259.097 138.41 259.275 139.486C259.275 139.486 274.854 142.622 281.023 142.622C292.12 142.622 299.168 139.803 299.327 139.754L299.582 139.684L293.8 104.092Z" fill="#3F3D56"/>
<path d="M277.962 34.5956C283.488 30.5847 285.519 21.3851 282.498 14.0477C279.477 6.71035 272.549 4.01375 267.023 8.02468C261.497 12.0356 259.466 21.2352 262.487 28.5726C265.508 35.9099 272.436 38.6065 277.962 34.5956Z" fill="#9F616A"/>
<path opacity="0.2" d="M273.756 97.1454L258.462 101.274C258.402 97.9272 258.369 95.7751 258.369 95.7751C258.369 95.7751 258.544 95.0109 258.849 93.6758L273.756 97.1454Z" fill="black"/>
<path d="M228.464 92.8183C229.007 93.4366 229.646 93.8893 230.335 94.1444C231.024 94.3996 231.747 94.451 232.453 94.2951C233.158 94.1392 233.83 93.7797 234.419 93.242C235.009 92.7043 235.503 92.0014 235.866 91.183L252.915 95.7305L249.523 84.6089L233.853 81.9956C232.777 81.2769 231.54 81.1073 230.376 81.5189C229.213 81.9304 228.203 82.8946 227.539 84.2287C226.874 85.5627 226.602 87.174 226.772 88.7571C226.943 90.3402 227.545 91.7852 228.464 92.8183Z" fill="#9F616A"/>
<path d="M248.658 83.9392L242.517 82.8125L240.469 94.142L248.221 94.7312L248.658 83.9392Z" fill="#6C63FF"/>
<path d="M246.558 81.7566L264.727 79.08L274.367 56.3706C275.363 54.0237 276.969 52.2383 278.884 51.3479C280.799 50.4575 282.892 50.523 284.773 51.532C286.655 52.541 288.195 54.4247 289.107 56.8313C290.019 59.2379 290.24 62.0029 289.729 64.6101L289.673 64.8922L273.469 96.2856L243.17 98.2697L246.558 81.7566Z" fill="#3F3D56"/>
<path d="M282.206 34.4564L272.741 34.9075C272.164 34.9349 270.599 26.6679 270.394 24.9529C270.232 23.8363 269.769 22.8363 269.093 22.1395C268.416 21.4427 267.571 21.0968 266.717 21.1664C266.008 21.2553 264.222 19.4977 262.378 17.4167C258.878 13.4657 259.06 6.0453 262.905 2.70675C263.01 2.61551 263.113 2.53219 263.214 2.45681C265.64 0.654254 268.477 0.0489347 271.256 0.00277527C273.776 -0.0390683 276.367 0.381999 278.586 1.96544C282.565 4.80421 284.683 11.0077 284.869 17.0007C285.055 22.9937 283.608 28.8537 281.966 34.4415" fill="#2F2E41"/>
<path d="M322.661 264.001H0.339286C0.249302 264.001 0.163003 263.953 0.0993742 263.869C0.0357458 263.784 0 263.67 0 263.55C0 263.431 0.0357458 263.316 0.0993742 263.232C0.163003 263.147 0.249302 263.1 0.339286 263.1H322.661C322.751 263.1 322.837 263.147 322.901 263.232C322.964 263.316 323 263.431 323 263.55C323 263.67 322.964 263.784 322.901 263.869C322.837 263.953 322.751 264.001 322.661 264.001Z" fill="#CBCBCB"/>
</g>
<defs>
<clipPath id="clip0_123_2152">
<rect width="323" height="264" fill="white"/>
</clipPath>
</defs>
</svg>
