<svg width="30" height="30" viewBox="0 0 30 30" fill="none" xmlns="http://www.w3.org/2000/svg">
<path d="M18.67 10.62V19.38C18.67 19.6452 18.7754 19.8996 18.9629 20.0871C19.1504 20.2746 19.4048 20.38 19.67 20.38H19.92C20.1852 20.38 20.4396 20.2746 20.6271 20.0871C20.8146 19.8996 20.92 19.6452 20.92 19.38V10.61C20.92 10.3448 20.8146 10.0904 20.6271 9.90289C20.4396 9.71535 20.1852 9.61 19.92 9.61H19.67C19.4048 9.61 19.1504 9.71535 18.9629 9.90289C18.7754 10.0904 18.67 10.3448 18.67 10.61V10.62ZM7.58 14.13L15.17 9.75C15.322 9.66223 15.4945 9.61602 15.67 9.61602C15.8455 9.61602 16.018 9.66223 16.17 9.75C16.3226 9.8381 16.4492 9.96497 16.537 10.1177C16.6248 10.2705 16.6707 10.4438 16.67 10.62V19.38C16.6707 19.5562 16.6248 19.7295 16.537 19.8822C16.4492 20.035 16.3226 20.1619 16.17 20.25C16.018 20.3378 15.8455 20.384 15.67 20.384C15.4945 20.384 15.322 20.3378 15.17 20.25L7.58 15.87C7.4261 15.7828 7.29809 15.6563 7.20903 15.5035C7.11997 15.3506 7.07305 15.1769 7.07305 15C7.07305 14.8231 7.11997 14.6494 7.20903 14.4965C7.29809 14.3437 7.4261 14.2172 7.58 14.13ZM0 15C0 17.9667 0.879734 20.8668 2.52795 23.3335C4.17618 25.8003 6.51885 27.7229 9.25975 28.8582C12.0006 29.9935 15.0166 30.2906 17.9264 29.7118C20.8361 29.133 23.5088 27.7044 25.6066 25.6066C27.7044 23.5088 29.133 20.8361 29.7118 17.9264C30.2906 15.0166 29.9935 12.0006 28.8582 9.25975C27.7229 6.51886 25.8003 4.17618 23.3335 2.52796C20.8668 0.879734 17.9667 0 15 0C11.0217 0 7.20644 1.58035 4.3934 4.3934C1.58035 7.20644 0 11.0218 0 15ZM5.08 15C5.07966 14.4731 5.21812 13.9553 5.48144 13.4989C5.74476 13.0425 6.12366 12.6635 6.58 12.4L14.17 8C14.6261 7.73669 15.1434 7.59807 15.67 7.59807C16.1966 7.59807 16.7139 7.73669 17.17 8C17.3489 8.10964 17.5164 8.23694 17.67 8.38C18.2161 7.87857 18.9286 7.59715 19.67 7.59H19.92C20.7156 7.59 21.4787 7.90607 22.0413 8.46868C22.6039 9.03129 22.92 9.79435 22.92 10.59V19.37C22.92 20.1656 22.6039 20.9287 22.0413 21.4913C21.4787 22.0539 20.7156 22.37 19.92 22.37H19.67C18.9286 22.3629 18.2161 22.0814 17.67 21.58C17.5164 21.7231 17.3489 21.8504 17.17 21.96C16.7156 22.2283 16.1976 22.3698 15.67 22.3698C15.1423 22.3698 14.6243 22.2283 14.17 21.96L6.58 17.58C6.12659 17.3182 5.74957 16.9424 5.48642 16.4897C5.22327 16.0371 5.08316 15.5235 5.08 15Z" fill="#4EB89E"/>
</svg>
